<mxfile host="app.diagrams.net" modified="2024-01-02T07:54:08.080Z" agent="Mozilla/5.0 (Windows NT 10.0; Win64; x64) AppleWebKit/537.36 (KHTML, like Gecko) Chrome/120.0.0.0 Safari/537.36" etag="crLcveHgzDGk6ANwEUTG" version="22.1.16" type="github">
  <diagram id="C5RBs43oDa-KdzZeNtuy" name="Page-1">
    <mxGraphModel dx="1434" dy="756" grid="1" gridSize="10" guides="1" tooltips="1" connect="1" arrows="1" fold="1" page="1" pageScale="1" pageWidth="1169" pageHeight="827" math="0" shadow="0">
      <root>
        <mxCell id="WIyWlLk6GJQsqaUBKTNV-0" />
        <mxCell id="WIyWlLk6GJQsqaUBKTNV-1" parent="WIyWlLk6GJQsqaUBKTNV-0" />
        <mxCell id="9qZHV0KyMJhV7yHp9CZv-33" style="edgeStyle=orthogonalEdgeStyle;rounded=0;orthogonalLoop=1;jettySize=auto;html=1;entryX=0;entryY=0.5;entryDx=0;entryDy=0;exitX=0.5;exitY=1;exitDx=0;exitDy=0;" edge="1" parent="WIyWlLk6GJQsqaUBKTNV-1" source="9qZHV0KyMJhV7yHp9CZv-45" target="9qZHV0KyMJhV7yHp9CZv-35">
          <mxGeometry relative="1" as="geometry">
            <mxPoint x="200" y="304" as="targetPoint" />
            <mxPoint x="50" y="264" as="sourcePoint" />
            <Array as="points">
              <mxPoint x="50" y="304" />
            </Array>
          </mxGeometry>
        </mxCell>
        <mxCell id="9qZHV0KyMJhV7yHp9CZv-36" style="edgeStyle=orthogonalEdgeStyle;rounded=0;orthogonalLoop=1;jettySize=auto;html=1;entryX=0;entryY=0.5;entryDx=0;entryDy=0;exitX=0.5;exitY=0;exitDx=0;exitDy=0;" edge="1" parent="WIyWlLk6GJQsqaUBKTNV-1" source="9qZHV0KyMJhV7yHp9CZv-46" target="9qZHV0KyMJhV7yHp9CZv-35">
          <mxGeometry relative="1" as="geometry">
            <mxPoint x="50" y="344" as="sourcePoint" />
            <Array as="points">
              <mxPoint x="50" y="304" />
            </Array>
          </mxGeometry>
        </mxCell>
        <mxCell id="9qZHV0KyMJhV7yHp9CZv-37" style="edgeStyle=orthogonalEdgeStyle;rounded=0;orthogonalLoop=1;jettySize=auto;html=1;entryX=0;entryY=0.5;entryDx=0;entryDy=0;" edge="1" parent="WIyWlLk6GJQsqaUBKTNV-1" source="9qZHV0KyMJhV7yHp9CZv-35" target="9qZHV0KyMJhV7yHp9CZv-47">
          <mxGeometry relative="1" as="geometry">
            <mxPoint x="280" y="304" as="targetPoint" />
          </mxGeometry>
        </mxCell>
        <mxCell id="9qZHV0KyMJhV7yHp9CZv-35" value="商业微信需求" style="rounded=1;whiteSpace=wrap;html=1;fontSize=12;glass=0;strokeWidth=1;shadow=0;direction=west;" vertex="1" parent="WIyWlLk6GJQsqaUBKTNV-1">
          <mxGeometry x="90" y="284" width="120" height="40" as="geometry" />
        </mxCell>
        <mxCell id="9qZHV0KyMJhV7yHp9CZv-39" style="edgeStyle=orthogonalEdgeStyle;rounded=0;orthogonalLoop=1;jettySize=auto;html=1;entryX=0;entryY=0.5;entryDx=0;entryDy=0;exitX=1;exitY=0.5;exitDx=0;exitDy=0;" edge="1" parent="WIyWlLk6GJQsqaUBKTNV-1" source="9qZHV0KyMJhV7yHp9CZv-47" target="9qZHV0KyMJhV7yHp9CZv-43">
          <mxGeometry relative="1" as="geometry">
            <mxPoint x="570" y="304" as="targetPoint" />
            <mxPoint x="400" y="304" as="sourcePoint" />
          </mxGeometry>
        </mxCell>
        <mxCell id="9qZHV0KyMJhV7yHp9CZv-44" value="" style="edgeStyle=orthogonalEdgeStyle;rounded=0;orthogonalLoop=1;jettySize=auto;html=1;exitX=0.5;exitY=1;exitDx=0;exitDy=0;entryX=0.5;entryY=0;entryDx=0;entryDy=0;" edge="1" parent="WIyWlLk6GJQsqaUBKTNV-1" source="9qZHV0KyMJhV7yHp9CZv-43" target="9qZHV0KyMJhV7yHp9CZv-52">
          <mxGeometry x="-0.0076" relative="1" as="geometry">
            <mxPoint x="460" y="430" as="targetPoint" />
            <mxPoint x="514" y="350" as="sourcePoint" />
            <mxPoint as="offset" />
          </mxGeometry>
        </mxCell>
        <mxCell id="9qZHV0KyMJhV7yHp9CZv-50" value="距离推送天数≤3个工作日" style="edgeLabel;html=1;align=center;verticalAlign=middle;resizable=0;points=[];" vertex="1" connectable="0" parent="9qZHV0KyMJhV7yHp9CZv-44">
          <mxGeometry x="-0.0789" y="1" relative="1" as="geometry">
            <mxPoint as="offset" />
          </mxGeometry>
        </mxCell>
        <mxCell id="9qZHV0KyMJhV7yHp9CZv-57" style="edgeStyle=orthogonalEdgeStyle;rounded=0;orthogonalLoop=1;jettySize=auto;html=1;entryX=0.5;entryY=1;entryDx=0;entryDy=0;" edge="1" parent="WIyWlLk6GJQsqaUBKTNV-1" source="9qZHV0KyMJhV7yHp9CZv-43" target="9qZHV0KyMJhV7yHp9CZv-63">
          <mxGeometry relative="1" as="geometry">
            <mxPoint x="460" y="190" as="targetPoint" />
          </mxGeometry>
        </mxCell>
        <mxCell id="9qZHV0KyMJhV7yHp9CZv-58" value="3个工作日＜距离推送天数≤5个工作日" style="edgeLabel;html=1;align=center;verticalAlign=middle;resizable=0;points=[];" vertex="1" connectable="0" parent="9qZHV0KyMJhV7yHp9CZv-57">
          <mxGeometry x="0.0225" y="-2" relative="1" as="geometry">
            <mxPoint as="offset" />
          </mxGeometry>
        </mxCell>
        <mxCell id="9qZHV0KyMJhV7yHp9CZv-43" value="判断是否为加急需求" style="rhombus;whiteSpace=wrap;html=1;" vertex="1" parent="WIyWlLk6GJQsqaUBKTNV-1">
          <mxGeometry x="380" y="264" width="160" height="80" as="geometry" />
        </mxCell>
        <mxCell id="9qZHV0KyMJhV7yHp9CZv-45" value="客户" style="ellipse;whiteSpace=wrap;html=1;" vertex="1" parent="WIyWlLk6GJQsqaUBKTNV-1">
          <mxGeometry x="10" y="224" width="80" height="40" as="geometry" />
        </mxCell>
        <mxCell id="9qZHV0KyMJhV7yHp9CZv-46" value="销售" style="ellipse;whiteSpace=wrap;html=1;" vertex="1" parent="WIyWlLk6GJQsqaUBKTNV-1">
          <mxGeometry x="10" y="344" width="80" height="40" as="geometry" />
        </mxCell>
        <mxCell id="9qZHV0KyMJhV7yHp9CZv-47" value="客户运营" style="ellipse;whiteSpace=wrap;html=1;" vertex="1" parent="WIyWlLk6GJQsqaUBKTNV-1">
          <mxGeometry x="260" y="284" width="80" height="40" as="geometry" />
        </mxCell>
        <mxCell id="9qZHV0KyMJhV7yHp9CZv-53" value="是" style="edgeStyle=orthogonalEdgeStyle;rounded=0;orthogonalLoop=1;jettySize=auto;html=1;entryX=0;entryY=0.5;entryDx=0;entryDy=0;" edge="1" parent="WIyWlLk6GJQsqaUBKTNV-1" source="9qZHV0KyMJhV7yHp9CZv-52" target="9qZHV0KyMJhV7yHp9CZv-54">
          <mxGeometry relative="1" as="geometry">
            <mxPoint x="320" y="450" as="targetPoint" />
          </mxGeometry>
        </mxCell>
        <mxCell id="9qZHV0KyMJhV7yHp9CZv-55" value="否" style="edgeStyle=orthogonalEdgeStyle;rounded=0;orthogonalLoop=1;jettySize=auto;html=1;entryX=0.5;entryY=0;entryDx=0;entryDy=0;" edge="1" parent="WIyWlLk6GJQsqaUBKTNV-1" source="9qZHV0KyMJhV7yHp9CZv-52" target="9qZHV0KyMJhV7yHp9CZv-62">
          <mxGeometry relative="1" as="geometry">
            <mxPoint x="460" y="550" as="targetPoint" />
          </mxGeometry>
        </mxCell>
        <mxCell id="9qZHV0KyMJhV7yHp9CZv-52" value="当前是否为旺季&lt;br&gt;（3、4、10、11月）" style="rhombus;whiteSpace=wrap;html=1;" vertex="1" parent="WIyWlLk6GJQsqaUBKTNV-1">
          <mxGeometry x="380" y="410" width="160" height="80" as="geometry" />
        </mxCell>
        <mxCell id="9qZHV0KyMJhV7yHp9CZv-54" value="无法执行" style="rounded=1;whiteSpace=wrap;html=1;fontSize=12;glass=0;strokeWidth=1;shadow=0;direction=west;fillColor=#f8cecc;strokeColor=#b85450;" vertex="1" parent="WIyWlLk6GJQsqaUBKTNV-1">
          <mxGeometry x="160" y="430" width="120" height="40" as="geometry" />
        </mxCell>
        <mxCell id="9qZHV0KyMJhV7yHp9CZv-64" style="edgeStyle=orthogonalEdgeStyle;rounded=0;orthogonalLoop=1;jettySize=auto;html=1;entryX=0.5;entryY=0;entryDx=0;entryDy=0;" edge="1" parent="WIyWlLk6GJQsqaUBKTNV-1" source="9qZHV0KyMJhV7yHp9CZv-62" target="9qZHV0KyMJhV7yHp9CZv-54">
          <mxGeometry relative="1" as="geometry" />
        </mxCell>
        <mxCell id="9qZHV0KyMJhV7yHp9CZv-65" value="需求过多" style="edgeLabel;html=1;align=center;verticalAlign=middle;resizable=0;points=[];" vertex="1" connectable="0" parent="9qZHV0KyMJhV7yHp9CZv-64">
          <mxGeometry x="-0.4044" relative="1" as="geometry">
            <mxPoint as="offset" />
          </mxGeometry>
        </mxCell>
        <mxCell id="9qZHV0KyMJhV7yHp9CZv-62" value="视情况判断是否执行" style="rhombus;whiteSpace=wrap;html=1;" vertex="1" parent="WIyWlLk6GJQsqaUBKTNV-1">
          <mxGeometry x="380" y="540" width="160" height="60" as="geometry" />
        </mxCell>
        <mxCell id="9qZHV0KyMJhV7yHp9CZv-67" style="edgeStyle=orthogonalEdgeStyle;rounded=0;orthogonalLoop=1;jettySize=auto;html=1;entryX=0;entryY=0.5;entryDx=0;entryDy=0;" edge="1" parent="WIyWlLk6GJQsqaUBKTNV-1" source="9qZHV0KyMJhV7yHp9CZv-63" target="9qZHV0KyMJhV7yHp9CZv-66">
          <mxGeometry relative="1" as="geometry" />
        </mxCell>
        <mxCell id="9qZHV0KyMJhV7yHp9CZv-68" value="需求过多" style="edgeLabel;html=1;align=center;verticalAlign=middle;resizable=0;points=[];" vertex="1" connectable="0" parent="9qZHV0KyMJhV7yHp9CZv-67">
          <mxGeometry x="-0.1" y="1" relative="1" as="geometry">
            <mxPoint as="offset" />
          </mxGeometry>
        </mxCell>
        <mxCell id="9qZHV0KyMJhV7yHp9CZv-63" value="视情况判断是否执行" style="rhombus;whiteSpace=wrap;html=1;" vertex="1" parent="WIyWlLk6GJQsqaUBKTNV-1">
          <mxGeometry x="380" y="150" width="160" height="60" as="geometry" />
        </mxCell>
        <mxCell id="9qZHV0KyMJhV7yHp9CZv-66" value="无法执行" style="rounded=1;whiteSpace=wrap;html=1;fontSize=12;glass=0;strokeWidth=1;shadow=0;direction=west;fillColor=#f8cecc;strokeColor=#b85450;" vertex="1" parent="WIyWlLk6GJQsqaUBKTNV-1">
          <mxGeometry x="160" y="160" width="120" height="40" as="geometry" />
        </mxCell>
      </root>
    </mxGraphModel>
  </diagram>
</mxfile>
